<?xml version="1.0" encoding="UTF-8"?>
<svg xmlns="http://www.w3.org/2000/svg" xmlns:xlink="http://www.w3.org/1999/xlink" width="854" height="480" viewBox="0 0 854 480">
<defs>
<g>
<g id="glyph-0-0">
<path d="M 5.851562 -5.320312 C 6.09375 -5.027344 6.273438 -4.683594 6.394531 -4.292969 C 6.515625 -3.898438 6.574219 -3.488281 6.574219 -3.058594 C 6.574219 -2.542969 6.5 -2.082031 6.351562 -1.671875 C 6.203125 -1.265625 6 -0.925781 5.742188 -0.65625 C 5.476562 -0.378906 5.160156 -0.167969 4.796875 -0.0273438 C 4.433594 0.113281 4.027344 0.183594 3.578125 0.183594 C 3.085938 0.183594 2.652344 0.101562 2.265625 -0.0625 C 1.882812 -0.226562 1.570312 -0.449219 1.332031 -0.734375 C 1.082031 -1.03125 0.894531 -1.378906 0.773438 -1.773438 C 0.648438 -2.171875 0.585938 -2.597656 0.585938 -3.058594 C 0.585938 -3.511719 0.648438 -3.925781 0.765625 -4.304688 C 0.886719 -4.6875 1.074219 -5.03125 1.328125 -5.335938 C 1.570312 -5.632812 1.882812 -5.867188 2.265625 -6.039062 C 2.652344 -6.210938 3.089844 -6.292969 3.582031 -6.292969 C 4.101562 -6.292969 4.550781 -6.207031 4.921875 -6.03125 C 5.292969 -5.859375 5.605469 -5.621094 5.851562 -5.320312 M 5.316406 -3.058594 C 5.316406 -3.964844 5.160156 -4.664062 4.851562 -5.160156 C 4.542969 -5.660156 4.121094 -5.90625 3.589844 -5.90625 C 3.050781 -5.90625 2.625 -5.660156 2.3125 -5.160156 C 2 -4.664062 1.84375 -3.964844 1.84375 -3.058594 C 1.84375 -2.199219 1.996094 -1.511719 2.292969 -0.988281 C 2.589844 -0.464844 3.019531 -0.203125 3.578125 -0.203125 C 4.136719 -0.203125 4.566406 -0.464844 4.863281 -0.988281 C 5.164062 -1.511719 5.316406 -2.199219 5.316406 -3.058594 Z "/>
</g>
<g id="glyph-0-1">
<path d="M 2.363281 -0.65625 C 2.363281 -0.441406 2.289062 -0.261719 2.132812 -0.109375 C 1.980469 0.0390625 1.796875 0.113281 1.582031 0.113281 C 1.371094 0.113281 1.1875 0.0390625 1.035156 -0.109375 C 0.878906 -0.261719 0.804688 -0.441406 0.804688 -0.65625 C 0.804688 -0.867188 0.878906 -1.050781 1.035156 -1.203125 C 1.1875 -1.359375 1.371094 -1.433594 1.582031 -1.4375 C 1.796875 -1.433594 1.980469 -1.359375 2.132812 -1.203125 C 2.289062 -1.050781 2.363281 -0.867188 2.363281 -0.65625 Z "/>
</g>
<g id="glyph-0-2">
<path d="M 5.863281 -5.742188 L 1.804688 2.078125 L 1.089844 2.078125 L 4.90625 -5.15625 L 2.671875 -5.15625 C 2.339844 -5.15625 2.082031 -5.152344 1.898438 -5.144531 C 1.710938 -5.136719 1.539062 -5.101562 1.382812 -5.035156 C 1.265625 -4.988281 1.160156 -4.859375 1.066406 -4.65625 C 0.976562 -4.453125 0.902344 -4.195312 0.855469 -3.878906 L 0.507812 -3.878906 L 0.507812 -6.113281 L 5.863281 -6.113281 Z "/>
</g>
<g id="glyph-0-3">
<path d="M 5.964844 0 L 0.625 0 L 0.625 -0.777344 C 0.730469 -0.898438 0.871094 -1.027344 1.054688 -1.175781 C 1.234375 -1.320312 1.453125 -1.480469 1.703125 -1.648438 C 1.855469 -1.753906 2.039062 -1.863281 2.25 -1.984375 C 2.460938 -2.105469 2.703125 -2.238281 2.972656 -2.382812 C 3.273438 -2.542969 3.503906 -2.683594 3.664062 -2.804688 C 3.828125 -2.925781 3.972656 -3.078125 4.105469 -3.253906 C 4.195312 -3.371094 4.265625 -3.519531 4.316406 -3.695312 C 4.371094 -3.871094 4.398438 -4.125 4.398438 -4.449219 C 4.398438 -4.925781 4.269531 -5.273438 4.015625 -5.496094 C 3.761719 -5.714844 3.433594 -5.828125 3.035156 -5.828125 C 2.789062 -5.828125 2.554688 -5.777344 2.335938 -5.683594 C 2.117188 -5.585938 1.949219 -5.453125 1.839844 -5.28125 C 1.867188 -5.160156 1.898438 -5.015625 1.941406 -4.847656 C 1.980469 -4.679688 2 -4.515625 2 -4.359375 C 2 -4.214844 1.941406 -4.085938 1.820312 -3.972656 C 1.699219 -3.863281 1.523438 -3.804688 1.289062 -3.804688 C 1.097656 -3.804688 0.953125 -3.871094 0.847656 -4 C 0.746094 -4.132812 0.695312 -4.308594 0.695312 -4.527344 C 0.695312 -4.734375 0.75 -4.941406 0.867188 -5.148438 C 0.980469 -5.355469 1.144531 -5.542969 1.355469 -5.71875 C 1.566406 -5.890625 1.824219 -6.027344 2.128906 -6.136719 C 2.4375 -6.242188 2.769531 -6.292969 3.128906 -6.292969 C 3.90625 -6.292969 4.523438 -6.121094 4.980469 -5.773438 C 5.4375 -5.425781 5.667969 -4.964844 5.667969 -4.382812 C 5.667969 -4.105469 5.628906 -3.855469 5.546875 -3.625 C 5.464844 -3.398438 5.332031 -3.195312 5.148438 -3.023438 C 4.949219 -2.828125 4.714844 -2.664062 4.445312 -2.523438 C 4.171875 -2.386719 3.761719 -2.195312 3.207031 -1.945312 C 2.875 -1.800781 2.570312 -1.644531 2.285156 -1.484375 C 2 -1.320312 1.765625 -1.164062 1.582031 -1.015625 L 5.964844 -1.015625 Z "/>
</g>
<g id="glyph-0-4">
<path d="M 6.125 -2.625 C 6.125 -2.230469 6.050781 -1.859375 5.910156 -1.511719 C 5.769531 -1.167969 5.578125 -0.875 5.335938 -0.632812 C 5.058594 -0.355469 4.753906 -0.148438 4.417969 -0.015625 C 4.082031 0.117188 3.730469 0.183594 3.367188 0.183594 C 2.945312 0.183594 2.5625 0.105469 2.222656 -0.0507812 C 1.878906 -0.207031 1.589844 -0.425781 1.351562 -0.710938 C 1.105469 -1 0.917969 -1.351562 0.785156 -1.769531 C 0.652344 -2.1875 0.585938 -2.65625 0.585938 -3.175781 C 0.585938 -4.53125 0.992188 -5.671875 1.796875 -6.601562 C 2.605469 -7.535156 3.6875 -8.089844 5.042969 -8.277344 L 5.144531 -7.765625 L 4.632812 -7.671875 C 3.808594 -7.40625 3.171875 -6.992188 2.71875 -6.433594 C 2.269531 -5.871094 1.980469 -5.1875 1.84375 -4.386719 C 2.171875 -4.671875 2.496094 -4.871094 2.8125 -4.992188 C 3.132812 -5.109375 3.46875 -5.167969 3.824219 -5.167969 C 4.457031 -5.167969 5 -4.925781 5.449219 -4.4375 C 5.898438 -3.953125 6.125 -3.347656 6.125 -2.625 M 4.886719 -2.472656 C 4.886719 -3.085938 4.746094 -3.582031 4.464844 -3.953125 C 4.179688 -4.324219 3.800781 -4.511719 3.328125 -4.511719 C 3.042969 -4.511719 2.777344 -4.457031 2.53125 -4.351562 C 2.289062 -4.246094 2.050781 -4.066406 1.824219 -3.816406 C 1.820312 -3.769531 1.8125 -3.664062 1.804688 -3.5 C 1.796875 -3.335938 1.792969 -3.207031 1.792969 -3.109375 C 1.792969 -2.222656 1.941406 -1.527344 2.230469 -1.023438 C 2.519531 -0.519531 2.902344 -0.269531 3.378906 -0.269531 C 3.828125 -0.269531 4.195312 -0.464844 4.472656 -0.855469 C 4.75 -1.25 4.886719 -1.789062 4.886719 -2.472656 Z "/>
</g>
</g>
</defs>
<g fill="rgb(93.72549%, 32.54902%, 31.372549%)" fill-opacity="1">
<use xlink:href="#glyph-0-0" x="30" y="30.697266"/>
<use xlink:href="#glyph-0-1" x="37" y="30.697266"/>
<use xlink:href="#glyph-0-2" x="40" y="30.697266"/>
<use xlink:href="#glyph-0-0" x="46" y="30.697266"/>
<use xlink:href="#glyph-0-3" x="53" y="30.697266"/>
<use xlink:href="#glyph-0-4" x="60" y="30.697266"/>
</g>
</svg>
