<?xml version="1.0" encoding="UTF-8"?>
<svg xmlns="http://www.w3.org/2000/svg" xmlns:xlink="http://www.w3.org/1999/xlink" width="854" height="480" viewBox="0 0 854 480">
<defs>
<g>
<g id="glyph-0-0">
<path d="M 5.851562 -5.320312 C 6.09375 -5.027344 6.273438 -4.683594 6.394531 -4.292969 C 6.515625 -3.898438 6.574219 -3.488281 6.574219 -3.058594 C 6.574219 -2.542969 6.5 -2.082031 6.351562 -1.671875 C 6.203125 -1.265625 6 -0.925781 5.742188 -0.65625 C 5.476562 -0.378906 5.160156 -0.167969 4.796875 -0.0273438 C 4.433594 0.113281 4.027344 0.183594 3.578125 0.183594 C 3.085938 0.183594 2.652344 0.101562 2.265625 -0.0625 C 1.882812 -0.226562 1.570312 -0.449219 1.332031 -0.734375 C 1.082031 -1.03125 0.894531 -1.378906 0.773438 -1.773438 C 0.648438 -2.171875 0.585938 -2.597656 0.585938 -3.058594 C 0.585938 -3.511719 0.648438 -3.925781 0.765625 -4.304688 C 0.886719 -4.6875 1.074219 -5.03125 1.328125 -5.335938 C 1.570312 -5.632812 1.882812 -5.867188 2.265625 -6.039062 C 2.652344 -6.210938 3.089844 -6.292969 3.582031 -6.292969 C 4.101562 -6.292969 4.550781 -6.207031 4.921875 -6.03125 C 5.292969 -5.859375 5.605469 -5.621094 5.851562 -5.320312 M 5.316406 -3.058594 C 5.316406 -3.964844 5.160156 -4.664062 4.851562 -5.160156 C 4.542969 -5.660156 4.121094 -5.90625 3.589844 -5.90625 C 3.050781 -5.90625 2.625 -5.660156 2.3125 -5.160156 C 2 -4.664062 1.84375 -3.964844 1.84375 -3.058594 C 1.84375 -2.199219 1.996094 -1.511719 2.292969 -0.988281 C 2.589844 -0.464844 3.019531 -0.203125 3.578125 -0.203125 C 4.136719 -0.203125 4.566406 -0.464844 4.863281 -0.988281 C 5.164062 -1.511719 5.316406 -2.199219 5.316406 -3.058594 Z "/>
</g>
<g id="glyph-0-1">
<path d="M 2.363281 -0.65625 C 2.363281 -0.441406 2.289062 -0.261719 2.132812 -0.109375 C 1.980469 0.0390625 1.796875 0.113281 1.582031 0.113281 C 1.371094 0.113281 1.1875 0.0390625 1.035156 -0.109375 C 0.878906 -0.261719 0.804688 -0.441406 0.804688 -0.65625 C 0.804688 -0.867188 0.878906 -1.050781 1.035156 -1.203125 C 1.1875 -1.359375 1.371094 -1.433594 1.582031 -1.4375 C 1.796875 -1.433594 1.980469 -1.359375 2.132812 -1.203125 C 2.289062 -1.050781 2.363281 -0.867188 2.363281 -0.65625 Z "/>
</g>
<g id="glyph-0-2">
<path d="M 5.863281 -5.742188 L 1.804688 2.078125 L 1.089844 2.078125 L 4.90625 -5.15625 L 2.671875 -5.15625 C 2.339844 -5.15625 2.082031 -5.152344 1.898438 -5.144531 C 1.710938 -5.136719 1.539062 -5.101562 1.382812 -5.035156 C 1.265625 -4.988281 1.160156 -4.859375 1.066406 -4.65625 C 0.976562 -4.453125 0.902344 -4.195312 0.855469 -3.878906 L 0.507812 -3.878906 L 0.507812 -6.113281 L 5.863281 -6.113281 Z "/>
</g>
<g id="glyph-0-3">
<path d="M 4.800781 -2.671875 C 5.050781 -2.472656 5.261719 -2.21875 5.425781 -1.910156 C 5.589844 -1.597656 5.671875 -1.207031 5.671875 -0.742188 C 5.671875 0.0742188 5.394531 0.75 4.835938 1.28125 C 4.277344 1.8125 3.570312 2.078125 2.710938 2.078125 C 2.046875 2.078125 1.484375 1.921875 1.023438 1.605469 C 0.566406 1.292969 0.335938 0.925781 0.335938 0.507812 C 0.335938 0.3125 0.382812 0.144531 0.476562 0 C 0.574219 -0.144531 0.71875 -0.214844 0.917969 -0.214844 C 1.144531 -0.214844 1.320312 -0.15625 1.4375 -0.0351562 C 1.558594 0.0820312 1.617188 0.210938 1.617188 0.351562 C 1.617188 0.476562 1.597656 0.625 1.554688 0.808594 C 1.511719 0.992188 1.480469 1.125 1.457031 1.214844 C 1.488281 1.238281 1.539062 1.277344 1.605469 1.320312 C 1.675781 1.367188 1.757812 1.410156 1.851562 1.453125 C 1.949219 1.496094 2.070312 1.53125 2.214844 1.5625 C 2.355469 1.597656 2.523438 1.613281 2.710938 1.613281 C 2.953125 1.613281 3.183594 1.5625 3.402344 1.464844 C 3.617188 1.367188 3.800781 1.21875 3.949219 1.023438 C 4.109375 0.8125 4.234375 0.570312 4.316406 0.300781 C 4.398438 0.0273438 4.4375 -0.316406 4.4375 -0.734375 C 4.4375 -1.269531 4.289062 -1.714844 3.992188 -2.066406 C 3.691406 -2.417969 3.300781 -2.59375 2.8125 -2.59375 C 2.511719 -2.59375 2.226562 -2.535156 1.960938 -2.421875 C 1.699219 -2.308594 1.460938 -2.117188 1.253906 -1.851562 L 0.871094 -2 L 1.355469 -6.113281 L 5.433594 -6.113281 L 5.433594 -5.097656 L 1.816406 -5.097656 L 1.519531 -2.683594 C 1.691406 -2.804688 1.914062 -2.925781 2.195312 -3.042969 C 2.472656 -3.164062 2.78125 -3.222656 3.117188 -3.222656 C 3.394531 -3.222656 3.679688 -3.179688 3.980469 -3.097656 C 4.277344 -3.011719 4.550781 -2.871094 4.800781 -2.671875 Z "/>
</g>
</g>
</defs>
<g fill="rgb(93.72549%, 32.54902%, 31.372549%)" fill-opacity="1">
<use xlink:href="#glyph-0-0" x="30" y="30.697266"/>
<use xlink:href="#glyph-0-1" x="37" y="30.697266"/>
<use xlink:href="#glyph-0-2" x="40" y="30.697266"/>
<use xlink:href="#glyph-0-2" x="46" y="30.697266"/>
<use xlink:href="#glyph-0-0" x="52" y="30.697266"/>
<use xlink:href="#glyph-0-3" x="59" y="30.697266"/>
</g>
</svg>
