<?xml version="1.0" encoding="UTF-8"?>
<svg xmlns="http://www.w3.org/2000/svg" xmlns:xlink="http://www.w3.org/1999/xlink" width="854" height="480" viewBox="0 0 854 480">
<defs>
<g>
<g id="glyph-0-0">
<path d="M 1.910156 -0.0351562 C 1.851562 -0.0117188 1.796875 0.00390625 1.753906 0.0195312 C 1.707031 0.03125 1.65625 0.0390625 1.601562 0.0390625 C 1.503906 0.0390625 1.421875 0.015625 1.363281 -0.03125 C 1.304688 -0.078125 1.269531 -0.144531 1.25 -0.234375 L 1.238281 -0.234375 C 1.15625 -0.140625 1.070312 -0.0742188 0.976562 -0.0234375 C 0.878906 0.0234375 0.765625 0.046875 0.632812 0.046875 C 0.492188 0.046875 0.378906 0.00390625 0.289062 -0.0820312 C 0.195312 -0.167969 0.152344 -0.28125 0.152344 -0.417969 C 0.152344 -0.492188 0.160156 -0.554688 0.183594 -0.613281 C 0.203125 -0.671875 0.234375 -0.722656 0.273438 -0.765625 C 0.304688 -0.804688 0.347656 -0.839844 0.398438 -0.867188 C 0.449219 -0.898438 0.5 -0.921875 0.546875 -0.941406 C 0.601562 -0.960938 0.71875 -1 0.890625 -1.058594 C 1.066406 -1.117188 1.183594 -1.164062 1.242188 -1.195312 L 1.242188 -1.382812 C 1.242188 -1.402344 1.242188 -1.433594 1.234375 -1.480469 C 1.226562 -1.527344 1.210938 -1.570312 1.1875 -1.613281 C 1.164062 -1.660156 1.128906 -1.699219 1.082031 -1.734375 C 1.035156 -1.769531 0.96875 -1.785156 0.886719 -1.785156 C 0.828125 -1.785156 0.773438 -1.777344 0.722656 -1.757812 C 0.671875 -1.738281 0.636719 -1.71875 0.617188 -1.695312 C 0.617188 -1.671875 0.625 -1.632812 0.636719 -1.582031 C 0.648438 -1.535156 0.652344 -1.488281 0.652344 -1.445312 C 0.652344 -1.402344 0.632812 -1.363281 0.59375 -1.324219 C 0.554688 -1.289062 0.5 -1.269531 0.425781 -1.269531 C 0.363281 -1.269531 0.316406 -1.292969 0.289062 -1.339844 C 0.257812 -1.382812 0.242188 -1.433594 0.242188 -1.488281 C 0.242188 -1.546875 0.261719 -1.601562 0.304688 -1.65625 C 0.347656 -1.710938 0.398438 -1.757812 0.464844 -1.796875 C 0.523438 -1.832031 0.589844 -1.863281 0.671875 -1.886719 C 0.753906 -1.914062 0.832031 -1.925781 0.910156 -1.925781 C 1.015625 -1.925781 1.109375 -1.917969 1.1875 -1.902344 C 1.265625 -1.890625 1.339844 -1.859375 1.402344 -1.808594 C 1.46875 -1.761719 1.515625 -1.699219 1.550781 -1.617188 C 1.585938 -1.539062 1.601562 -1.433594 1.601562 -1.308594 C 1.601562 -1.128906 1.597656 -0.96875 1.59375 -0.828125 C 1.589844 -0.6875 1.589844 -0.535156 1.589844 -0.367188 C 1.589844 -0.320312 1.597656 -0.28125 1.613281 -0.25 C 1.632812 -0.222656 1.660156 -0.195312 1.695312 -0.175781 C 1.714844 -0.164062 1.742188 -0.160156 1.785156 -0.15625 C 1.824219 -0.15625 1.867188 -0.15625 1.910156 -0.15625 L 1.910156 -0.0351562 M 1.246094 -1.035156 C 1.140625 -1.003906 1.046875 -0.972656 0.964844 -0.945312 C 0.882812 -0.914062 0.808594 -0.875 0.738281 -0.828125 C 0.675781 -0.785156 0.625 -0.734375 0.589844 -0.675781 C 0.550781 -0.617188 0.535156 -0.546875 0.535156 -0.464844 C 0.535156 -0.359375 0.5625 -0.285156 0.617188 -0.234375 C 0.671875 -0.183594 0.742188 -0.160156 0.824219 -0.160156 C 0.914062 -0.160156 0.996094 -0.179688 1.0625 -0.226562 C 1.132812 -0.269531 1.191406 -0.320312 1.234375 -0.378906 Z "/>
</g>
<g id="glyph-0-1">
<path d="M 1.53125 -2.710938 C 1.53125 -2.65625 1.515625 -2.605469 1.484375 -2.566406 C 1.453125 -2.527344 1.410156 -2.507812 1.347656 -2.507812 C 1.308594 -2.507812 1.273438 -2.515625 1.242188 -2.535156 C 1.214844 -2.550781 1.1875 -2.570312 1.160156 -2.601562 C 1.136719 -2.628906 1.113281 -2.660156 1.089844 -2.695312 C 1.070312 -2.730469 1.050781 -2.757812 1.035156 -2.78125 C 0.949219 -2.777344 0.882812 -2.71875 0.839844 -2.601562 C 0.792969 -2.488281 0.769531 -2.304688 0.769531 -2.054688 L 0.769531 -1.863281 L 1.25 -1.863281 L 1.25 -1.683594 L 0.769531 -1.683594 L 0.769531 -0.339844 C 0.769531 -0.292969 0.777344 -0.257812 0.792969 -0.230469 C 0.8125 -0.203125 0.839844 -0.179688 0.875 -0.167969 C 0.90625 -0.15625 0.945312 -0.148438 0.996094 -0.140625 C 1.046875 -0.132812 1.089844 -0.128906 1.128906 -0.125 L 1.128906 0 L 0.140625 0 L 0.140625 -0.125 C 0.167969 -0.128906 0.199219 -0.128906 0.230469 -0.132812 C 0.261719 -0.136719 0.289062 -0.140625 0.3125 -0.148438 C 0.347656 -0.160156 0.375 -0.179688 0.390625 -0.207031 C 0.40625 -0.238281 0.414062 -0.273438 0.414062 -0.320312 L 0.414062 -1.683594 L 0.046875 -1.683594 L 0.046875 -1.863281 L 0.414062 -1.863281 L 0.414062 -1.984375 C 0.414062 -2.269531 0.488281 -2.5 0.636719 -2.675781 C 0.785156 -2.851562 0.96875 -2.941406 1.191406 -2.941406 C 1.304688 -2.941406 1.386719 -2.917969 1.445312 -2.875 C 1.503906 -2.828125 1.53125 -2.773438 1.53125 -2.710938 Z "/>
</g>
<g id="glyph-0-2">
<path d="M 1.042969 0 L 0.140625 0 L 0.140625 -0.125 C 0.167969 -0.128906 0.199219 -0.128906 0.230469 -0.132812 C 0.261719 -0.136719 0.289062 -0.140625 0.3125 -0.148438 C 0.347656 -0.160156 0.375 -0.179688 0.390625 -0.207031 C 0.40625 -0.234375 0.414062 -0.273438 0.414062 -0.320312 L 0.414062 -1.472656 C 0.414062 -1.515625 0.40625 -1.550781 0.386719 -1.585938 C 0.371094 -1.617188 0.34375 -1.648438 0.3125 -1.667969 C 0.289062 -1.683594 0.253906 -1.699219 0.207031 -1.707031 C 0.160156 -1.71875 0.121094 -1.726562 0.0820312 -1.726562 L 0.0820312 -1.851562 L 0.742188 -1.894531 L 0.769531 -1.867188 L 0.769531 -0.34375 C 0.769531 -0.296875 0.777344 -0.261719 0.792969 -0.230469 C 0.8125 -0.203125 0.839844 -0.179688 0.875 -0.167969 C 0.902344 -0.15625 0.929688 -0.148438 0.957031 -0.140625 C 0.980469 -0.132812 1.011719 -0.128906 1.042969 -0.125 L 1.042969 0 M 0.808594 -2.632812 C 0.808594 -2.5625 0.785156 -2.5 0.734375 -2.445312 C 0.6875 -2.390625 0.628906 -2.363281 0.558594 -2.363281 C 0.496094 -2.363281 0.441406 -2.390625 0.390625 -2.441406 C 0.34375 -2.492188 0.320312 -2.550781 0.320312 -2.617188 C 0.320312 -2.6875 0.34375 -2.746094 0.390625 -2.800781 C 0.441406 -2.851562 0.496094 -2.878906 0.558594 -2.878906 C 0.632812 -2.878906 0.691406 -2.851562 0.738281 -2.804688 C 0.785156 -2.753906 0.808594 -2.699219 0.808594 -2.632812 Z "/>
</g>
<g id="glyph-0-3">
<path d="M 1.570312 -1.632812 C 1.570312 -1.566406 1.554688 -1.507812 1.523438 -1.460938 C 1.492188 -1.410156 1.441406 -1.382812 1.375 -1.382812 C 1.304688 -1.382812 1.25 -1.402344 1.214844 -1.441406 C 1.175781 -1.476562 1.160156 -1.515625 1.160156 -1.5625 C 1.160156 -1.589844 1.160156 -1.613281 1.164062 -1.636719 C 1.167969 -1.660156 1.171875 -1.683594 1.175781 -1.707031 C 1.117188 -1.707031 1.046875 -1.679688 0.96875 -1.632812 C 0.890625 -1.585938 0.820312 -1.515625 0.765625 -1.429688 L 0.765625 -0.339844 C 0.765625 -0.292969 0.773438 -0.257812 0.789062 -0.230469 C 0.808594 -0.203125 0.835938 -0.179688 0.871094 -0.167969 C 0.902344 -0.15625 0.945312 -0.144531 0.996094 -0.136719 C 1.042969 -0.132812 1.085938 -0.128906 1.125 -0.125 L 1.125 0 L 0.136719 0 L 0.136719 -0.125 C 0.164062 -0.128906 0.195312 -0.128906 0.226562 -0.132812 C 0.257812 -0.136719 0.285156 -0.140625 0.308594 -0.148438 C 0.34375 -0.160156 0.371094 -0.179688 0.386719 -0.207031 C 0.402344 -0.234375 0.410156 -0.273438 0.410156 -0.320312 L 0.410156 -1.472656 C 0.410156 -1.511719 0.402344 -1.550781 0.382812 -1.589844 C 0.367188 -1.628906 0.339844 -1.65625 0.308594 -1.679688 C 0.285156 -1.695312 0.253906 -1.707031 0.222656 -1.714844 C 0.1875 -1.722656 0.152344 -1.726562 0.117188 -1.726562 L 0.117188 -1.851562 L 0.738281 -1.894531 L 0.765625 -1.867188 L 0.765625 -1.605469 L 0.773438 -1.605469 C 0.851562 -1.707031 0.941406 -1.785156 1.035156 -1.839844 C 1.132812 -1.890625 1.222656 -1.917969 1.300781 -1.917969 C 1.378906 -1.917969 1.445312 -1.890625 1.496094 -1.839844 C 1.546875 -1.789062 1.570312 -1.71875 1.570312 -1.632812 Z "/>
</g>
</g>
</defs>
<g fill="rgb(87.843137%, 87.843137%, 87.843137%)" fill-opacity="1">
<use xlink:href="#glyph-0-0" x="30" y="23.56543"/>
<use xlink:href="#glyph-0-1" x="32" y="23.56543"/>
<use xlink:href="#glyph-0-1" x="33" y="23.56543"/>
<use xlink:href="#glyph-0-0" x="34" y="23.56543"/>
<use xlink:href="#glyph-0-2" x="36" y="23.56543"/>
<use xlink:href="#glyph-0-3" x="37" y="23.56543"/>
</g>
</svg>
