<?xml version="1.0" encoding="UTF-8"?>
<svg xmlns="http://www.w3.org/2000/svg" xmlns:xlink="http://www.w3.org/1999/xlink" width="854" height="480" viewBox="0 0 854 480">
<defs>
<g>
<g id="glyph-0-0">
<path d="M 0.789062 0.0390625 C 0.574219 0.0390625 0.410156 -0.03125 0.289062 -0.171875 C 0.167969 -0.3125 0.109375 -0.503906 0.109375 -0.742188 C 0.109375 -0.84375 0.125 -0.941406 0.15625 -1.03125 C 0.1875 -1.121094 0.234375 -1.203125 0.296875 -1.277344 C 0.355469 -1.347656 0.429688 -1.40625 0.519531 -1.449219 C 0.605469 -1.492188 0.703125 -1.511719 0.808594 -1.511719 C 0.953125 -1.511719 1.070312 -1.476562 1.160156 -1.410156 C 1.25 -1.339844 1.296875 -1.246094 1.296875 -1.125 C 1.296875 -1.078125 1.285156 -1.03125 1.257812 -0.996094 C 1.234375 -0.957031 1.195312 -0.9375 1.140625 -0.9375 C 1.082031 -0.9375 1.039062 -0.953125 1.003906 -0.980469 C 0.972656 -1.011719 0.957031 -1.042969 0.957031 -1.082031 C 0.957031 -1.125 0.960938 -1.171875 0.972656 -1.21875 C 0.988281 -1.265625 0.992188 -1.300781 0.996094 -1.324219 C 0.976562 -1.351562 0.949219 -1.375 0.914062 -1.382812 C 0.878906 -1.394531 0.84375 -1.398438 0.800781 -1.398438 C 0.753906 -1.398438 0.707031 -1.390625 0.664062 -1.367188 C 0.621094 -1.347656 0.582031 -1.3125 0.539062 -1.257812 C 0.503906 -1.207031 0.472656 -1.140625 0.449219 -1.054688 C 0.425781 -0.96875 0.417969 -0.871094 0.417969 -0.753906 C 0.417969 -0.566406 0.457031 -0.417969 0.539062 -0.300781 C 0.621094 -0.183594 0.730469 -0.125 0.863281 -0.125 C 0.957031 -0.125 1.039062 -0.148438 1.105469 -0.195312 C 1.167969 -0.242188 1.230469 -0.3125 1.285156 -0.40625 L 1.378906 -0.34375 C 1.316406 -0.226562 1.226562 -0.132812 1.121094 -0.0625 C 1.011719 0.00390625 0.902344 0.0390625 0.789062 0.0390625 Z "/>
</g>
<g id="glyph-0-1">
<path d="M 1.707031 0 L 0.984375 0 L 0.984375 -0.0976562 C 1.007812 -0.101562 1.03125 -0.101562 1.0625 -0.105469 C 1.089844 -0.105469 1.113281 -0.109375 1.128906 -0.117188 C 1.15625 -0.125 1.179688 -0.140625 1.191406 -0.164062 C 1.203125 -0.1875 1.210938 -0.214844 1.210938 -0.25 L 1.210938 -1.007812 C 1.210938 -1.113281 1.1875 -1.191406 1.136719 -1.25 C 1.089844 -1.304688 1.027344 -1.335938 0.957031 -1.335938 C 0.90625 -1.335938 0.859375 -1.324219 0.8125 -1.308594 C 0.769531 -1.292969 0.730469 -1.273438 0.695312 -1.25 C 0.660156 -1.222656 0.632812 -1.199219 0.617188 -1.175781 C 0.597656 -1.148438 0.585938 -1.128906 0.574219 -1.113281 L 0.574219 -0.265625 C 0.574219 -0.230469 0.582031 -0.203125 0.59375 -0.183594 C 0.609375 -0.160156 0.628906 -0.144531 0.65625 -0.132812 C 0.679688 -0.121094 0.699219 -0.113281 0.722656 -0.109375 C 0.746094 -0.105469 0.773438 -0.101562 0.800781 -0.0976562 L 0.800781 0 L 0.0820312 0 L 0.0820312 -0.0976562 C 0.101562 -0.101562 0.128906 -0.101562 0.152344 -0.105469 C 0.175781 -0.109375 0.195312 -0.113281 0.214844 -0.117188 C 0.242188 -0.125 0.261719 -0.140625 0.277344 -0.164062 C 0.289062 -0.1875 0.296875 -0.214844 0.296875 -0.25 L 0.296875 -1.964844 C 0.296875 -2 0.289062 -2.03125 0.273438 -2.066406 C 0.257812 -2.101562 0.238281 -2.125 0.214844 -2.144531 C 0.195312 -2.15625 0.164062 -2.164062 0.117188 -2.171875 C 0.0742188 -2.175781 0.0351562 -2.179688 0.0078125 -2.179688 L 0.0078125 -2.277344 L 0.554688 -2.308594 L 0.574219 -2.289062 L 0.574219 -1.261719 L 0.582031 -1.261719 C 0.613281 -1.292969 0.644531 -1.324219 0.671875 -1.347656 C 0.695312 -1.375 0.730469 -1.398438 0.777344 -1.429688 C 0.8125 -1.453125 0.859375 -1.472656 0.910156 -1.488281 C 0.960938 -1.503906 1.019531 -1.511719 1.082031 -1.511719 C 1.214844 -1.511719 1.316406 -1.46875 1.386719 -1.386719 C 1.457031 -1.304688 1.492188 -1.183594 1.492188 -1.027344 L 1.492188 -0.261719 C 1.492188 -0.226562 1.5 -0.199219 1.511719 -0.179688 C 1.523438 -0.15625 1.542969 -0.140625 1.574219 -0.128906 C 1.597656 -0.121094 1.617188 -0.113281 1.636719 -0.109375 C 1.652344 -0.105469 1.679688 -0.101562 1.707031 -0.0976562 Z "/>
</g>
<g id="glyph-0-2">
<path d="M 0.820312 0 L 0.109375 0 L 0.109375 -0.0976562 C 0.132812 -0.101562 0.15625 -0.101562 0.179688 -0.105469 C 0.207031 -0.105469 0.226562 -0.109375 0.246094 -0.117188 C 0.273438 -0.125 0.292969 -0.140625 0.308594 -0.164062 C 0.320312 -0.1875 0.328125 -0.214844 0.328125 -0.25 L 0.328125 -1.15625 C 0.328125 -1.191406 0.320312 -1.21875 0.304688 -1.246094 C 0.289062 -1.273438 0.269531 -1.292969 0.246094 -1.3125 C 0.226562 -1.324219 0.199219 -1.332031 0.164062 -1.34375 C 0.125 -1.351562 0.09375 -1.355469 0.0625 -1.359375 L 0.0625 -1.457031 L 0.582031 -1.488281 L 0.605469 -1.46875 L 0.605469 -0.269531 C 0.605469 -0.234375 0.609375 -0.203125 0.625 -0.183594 C 0.636719 -0.160156 0.660156 -0.140625 0.6875 -0.132812 C 0.710938 -0.121094 0.730469 -0.113281 0.75 -0.109375 C 0.773438 -0.105469 0.796875 -0.101562 0.820312 -0.0976562 L 0.820312 0 M 0.632812 -2.070312 C 0.632812 -2.011719 0.617188 -1.964844 0.578125 -1.921875 C 0.539062 -1.878906 0.496094 -1.859375 0.441406 -1.859375 C 0.390625 -1.859375 0.34375 -1.878906 0.308594 -1.917969 C 0.269531 -1.957031 0.253906 -2.003906 0.253906 -2.054688 C 0.253906 -2.109375 0.269531 -2.160156 0.308594 -2.199219 C 0.34375 -2.242188 0.390625 -2.261719 0.441406 -2.261719 C 0.496094 -2.261719 0.542969 -2.242188 0.578125 -2.203125 C 0.617188 -2.164062 0.632812 -2.121094 0.632812 -2.070312 Z "/>
</g>
<g id="glyph-0-3">
<path d="M 0.796875 0 L 0.078125 0 L 0.078125 -0.0976562 C 0.101562 -0.101562 0.125 -0.101562 0.152344 -0.105469 C 0.179688 -0.109375 0.199219 -0.113281 0.214844 -0.117188 C 0.246094 -0.125 0.265625 -0.140625 0.277344 -0.164062 C 0.292969 -0.1875 0.300781 -0.214844 0.300781 -0.25 L 0.300781 -1.957031 C 0.300781 -1.992188 0.292969 -2.027344 0.277344 -2.058594 C 0.261719 -2.089844 0.242188 -2.113281 0.214844 -2.128906 C 0.199219 -2.144531 0.164062 -2.152344 0.117188 -2.164062 C 0.0703125 -2.171875 0.03125 -2.179688 0.00390625 -2.179688 L 0.00390625 -2.277344 L 0.554688 -2.308594 L 0.578125 -2.289062 L 0.578125 -0.269531 C 0.578125 -0.234375 0.582031 -0.207031 0.597656 -0.183594 C 0.609375 -0.160156 0.628906 -0.144531 0.660156 -0.132812 C 0.679688 -0.121094 0.703125 -0.113281 0.722656 -0.109375 C 0.746094 -0.105469 0.769531 -0.101562 0.796875 -0.0976562 Z "/>
</g>
<g id="glyph-0-4">
<path d="M 1.71875 -0.0273438 L 1.203125 0.0078125 L 1.183594 -0.015625 L 1.183594 -0.152344 L 1.167969 -0.15625 C 1.117188 -0.0976562 1.054688 -0.0507812 0.976562 -0.0117188 C 0.902344 0.0234375 0.824219 0.0429688 0.742188 0.0429688 C 0.660156 0.0429688 0.578125 0.0234375 0.5 -0.015625 C 0.421875 -0.0507812 0.355469 -0.105469 0.296875 -0.171875 C 0.238281 -0.242188 0.191406 -0.324219 0.160156 -0.417969 C 0.125 -0.515625 0.109375 -0.621094 0.109375 -0.738281 C 0.109375 -0.84375 0.125 -0.945312 0.164062 -1.042969 C 0.199219 -1.136719 0.25 -1.21875 0.316406 -1.292969 C 0.375 -1.359375 0.449219 -1.410156 0.539062 -1.453125 C 0.625 -1.492188 0.714844 -1.511719 0.804688 -1.511719 C 0.875 -1.511719 0.941406 -1.503906 1.007812 -1.484375 C 1.074219 -1.46875 1.132812 -1.445312 1.179688 -1.417969 L 1.179688 -1.933594 C 1.179688 -1.972656 1.171875 -2.011719 1.15625 -2.046875 C 1.144531 -2.082031 1.125 -2.105469 1.101562 -2.125 C 1.070312 -2.144531 1.035156 -2.15625 0.988281 -2.164062 C 0.941406 -2.175781 0.890625 -2.179688 0.835938 -2.183594 L 0.835938 -2.277344 L 1.4375 -2.308594 L 1.460938 -2.289062 L 1.460938 -0.304688 C 1.460938 -0.269531 1.464844 -0.238281 1.480469 -0.214844 C 1.492188 -0.191406 1.511719 -0.171875 1.539062 -0.152344 C 1.558594 -0.140625 1.585938 -0.132812 1.621094 -0.132812 C 1.65625 -0.128906 1.6875 -0.125 1.71875 -0.125 L 1.71875 -0.0273438 M 1.179688 -0.285156 L 1.179688 -1.144531 C 1.171875 -1.171875 1.15625 -1.199219 1.140625 -1.230469 C 1.121094 -1.257812 1.101562 -1.285156 1.074219 -1.3125 C 1.042969 -1.335938 1.011719 -1.355469 0.972656 -1.375 C 0.933594 -1.390625 0.886719 -1.398438 0.835938 -1.398438 C 0.777344 -1.398438 0.722656 -1.382812 0.671875 -1.351562 C 0.621094 -1.320312 0.578125 -1.277344 0.539062 -1.21875 C 0.5 -1.164062 0.472656 -1.09375 0.453125 -1.007812 C 0.429688 -0.921875 0.417969 -0.824219 0.417969 -0.722656 C 0.417969 -0.636719 0.425781 -0.5625 0.441406 -0.492188 C 0.460938 -0.425781 0.484375 -0.363281 0.523438 -0.304688 C 0.558594 -0.246094 0.601562 -0.203125 0.65625 -0.167969 C 0.710938 -0.136719 0.773438 -0.117188 0.851562 -0.117188 C 0.929688 -0.117188 0.996094 -0.136719 1.046875 -0.171875 C 1.097656 -0.203125 1.144531 -0.242188 1.179688 -0.285156 Z "/>
</g>
</g>
</defs>
<g fill="rgb(87.843137%, 87.843137%, 87.843137%)" fill-opacity="1">
<use xlink:href="#glyph-0-0" x="30" y="22.801758"/>
<use xlink:href="#glyph-0-1" x="31" y="22.801758"/>
<use xlink:href="#glyph-0-2" x="33" y="22.801758"/>
<use xlink:href="#glyph-0-3" x="34" y="22.801758"/>
<use xlink:href="#glyph-0-4" x="35" y="22.801758"/>
</g>
</svg>
