<?xml version="1.0" encoding="UTF-8"?>
<svg xmlns="http://www.w3.org/2000/svg" xmlns:xlink="http://www.w3.org/1999/xlink" width="1280" height="720" viewBox="0 0 1280 720">
<defs>
<g>
<g id="glyph-0-0">
<path d="M 0.832031 -0.0507812 C 0.777344 -0.03125 0.726562 -0.0117188 0.679688 0.00390625 C 0.632812 0.0195312 0.578125 0.0273438 0.507812 0.0273438 C 0.40625 0.0273438 0.335938 0 0.292969 -0.0507812 C 0.253906 -0.101562 0.234375 -0.171875 0.234375 -0.265625 L 0.234375 -1.082031 L 0.015625 -1.082031 L 0.015625 -1.199219 L 0.238281 -1.199219 L 0.238281 -1.574219 L 0.460938 -1.574219 L 0.460938 -1.199219 L 0.804688 -1.199219 L 0.804688 -1.082031 L 0.460938 -1.082031 L 0.460938 -0.410156 C 0.460938 -0.359375 0.464844 -0.316406 0.46875 -0.28125 C 0.472656 -0.25 0.480469 -0.21875 0.496094 -0.195312 C 0.507812 -0.171875 0.527344 -0.152344 0.554688 -0.140625 C 0.578125 -0.128906 0.613281 -0.121094 0.65625 -0.121094 C 0.679688 -0.121094 0.707031 -0.125 0.746094 -0.128906 C 0.789062 -0.132812 0.816406 -0.136719 0.832031 -0.140625 Z "/>
</g>
<g id="glyph-0-1">
<path d="M 1.261719 -0.613281 C 1.261719 -0.53125 1.25 -0.445312 1.222656 -0.363281 C 1.195312 -0.28125 1.15625 -0.214844 1.105469 -0.15625 C 1.050781 -0.0898438 0.984375 -0.0429688 0.910156 -0.0117188 C 0.835938 0.0195312 0.753906 0.0351562 0.664062 0.0351562 C 0.585938 0.0351562 0.511719 0.0234375 0.445312 -0.0078125 C 0.375 -0.0351562 0.3125 -0.078125 0.257812 -0.132812 C 0.207031 -0.1875 0.164062 -0.253906 0.132812 -0.332031 C 0.101562 -0.410156 0.0859375 -0.5 0.0859375 -0.597656 C 0.0859375 -0.785156 0.140625 -0.9375 0.25 -1.058594 C 0.359375 -1.179688 0.503906 -1.238281 0.679688 -1.238281 C 0.847656 -1.238281 0.988281 -1.179688 1.097656 -1.066406 C 1.207031 -0.953125 1.261719 -0.804688 1.261719 -0.613281 M 1.007812 -0.613281 C 1.007812 -0.671875 1.003906 -0.738281 0.992188 -0.804688 C 0.980469 -0.871094 0.960938 -0.929688 0.9375 -0.976562 C 0.910156 -1.027344 0.875 -1.070312 0.832031 -1.097656 C 0.792969 -1.128906 0.738281 -1.144531 0.679688 -1.144531 C 0.617188 -1.144531 0.5625 -1.128906 0.515625 -1.097656 C 0.472656 -1.066406 0.4375 -1.023438 0.410156 -0.972656 C 0.382812 -0.921875 0.363281 -0.867188 0.355469 -0.800781 C 0.34375 -0.738281 0.339844 -0.675781 0.339844 -0.617188 C 0.339844 -0.539062 0.34375 -0.46875 0.355469 -0.402344 C 0.371094 -0.335938 0.390625 -0.277344 0.417969 -0.222656 C 0.445312 -0.171875 0.480469 -0.128906 0.523438 -0.101562 C 0.5625 -0.0703125 0.617188 -0.0546875 0.679688 -0.0546875 C 0.78125 -0.0546875 0.859375 -0.105469 0.921875 -0.203125 C 0.980469 -0.300781 1.007812 -0.4375 1.007812 -0.613281 Z "/>
</g>
<g id="glyph-0-2">
<path d="M 1.363281 0 L 1 0 C 0.9375 -0.09375 0.867188 -0.191406 0.796875 -0.296875 C 0.722656 -0.398438 0.648438 -0.503906 0.570312 -0.601562 L 0.46875 -0.507812 L 0.46875 -0.222656 C 0.46875 -0.191406 0.476562 -0.167969 0.484375 -0.148438 C 0.496094 -0.128906 0.511719 -0.117188 0.539062 -0.109375 C 0.554688 -0.0976562 0.574219 -0.09375 0.59375 -0.0898438 C 0.609375 -0.0859375 0.632812 -0.0820312 0.65625 -0.0820312 L 0.65625 0 L 0.0664062 0 L 0.0664062 -0.0820312 C 0.0859375 -0.0820312 0.105469 -0.0859375 0.125 -0.0859375 C 0.144531 -0.0898438 0.160156 -0.0898438 0.175781 -0.09375 C 0.199219 -0.101562 0.214844 -0.117188 0.226562 -0.132812 C 0.238281 -0.152344 0.242188 -0.175781 0.242188 -0.207031 L 0.242188 -1.605469 C 0.242188 -1.636719 0.238281 -1.664062 0.222656 -1.691406 C 0.210938 -1.714844 0.195312 -1.738281 0.175781 -1.75 C 0.15625 -1.761719 0.128906 -1.773438 0.09375 -1.777344 C 0.0585938 -1.78125 0.0273438 -1.78125 0.0078125 -1.785156 L 0.0078125 -1.863281 L 0.453125 -1.890625 L 0.46875 -1.871094 L 0.46875 -0.597656 C 0.535156 -0.660156 0.601562 -0.730469 0.675781 -0.800781 C 0.75 -0.875 0.8125 -0.941406 0.863281 -0.996094 C 0.867188 -1.003906 0.875 -1.015625 0.882812 -1.027344 C 0.890625 -1.039062 0.894531 -1.046875 0.894531 -1.054688 C 0.894531 -1.078125 0.878906 -1.09375 0.84375 -1.101562 C 0.804688 -1.113281 0.773438 -1.121094 0.738281 -1.125 L 0.738281 -1.203125 L 1.269531 -1.203125 L 1.269531 -1.128906 C 1.203125 -1.109375 1.140625 -1.082031 1.089844 -1.050781 C 1.035156 -1.019531 0.996094 -0.992188 0.96875 -0.96875 C 0.949219 -0.953125 0.921875 -0.925781 0.886719 -0.890625 C 0.847656 -0.851562 0.800781 -0.804688 0.734375 -0.746094 C 0.800781 -0.664062 0.875 -0.566406 0.960938 -0.449219 C 1.042969 -0.335938 1.105469 -0.253906 1.140625 -0.203125 C 1.179688 -0.152344 1.210938 -0.121094 1.238281 -0.109375 C 1.265625 -0.09375 1.308594 -0.0820312 1.363281 -0.0820312 Z "/>
</g>
</g>
</defs>
<g fill="rgb(30.980392%, 76.470588%, 96.862745%)" fill-opacity="1">
<use xlink:href="#glyph-0-0" x="30" y="22.292969"/>
<use xlink:href="#glyph-0-1" x="31" y="22.292969"/>
<use xlink:href="#glyph-0-1" x="32" y="22.292969"/>
<use xlink:href="#glyph-0-2" x="33" y="22.292969"/>
</g>
</svg>
