<?xml version="1.0" encoding="UTF-8"?>
<svg xmlns="http://www.w3.org/2000/svg" xmlns:xlink="http://www.w3.org/1999/xlink" width="854" height="480" viewBox="0 0 854 480">
<defs>
<g>
<g id="glyph-0-0">
<path d="M 1.453125 -1.296875 C 1.511719 -1.226562 1.554688 -1.144531 1.589844 -1.054688 C 1.621094 -0.960938 1.636719 -0.855469 1.636719 -0.738281 C 1.636719 -0.621094 1.617188 -0.515625 1.578125 -0.421875 C 1.539062 -0.324219 1.488281 -0.242188 1.425781 -0.175781 C 1.359375 -0.105469 1.285156 -0.0546875 1.203125 -0.015625 C 1.121094 0.0195312 1.035156 0.0390625 0.941406 0.0390625 C 0.855469 0.0390625 0.78125 0.0273438 0.726562 0.0078125 C 0.667969 -0.0117188 0.621094 -0.0351562 0.585938 -0.0625 L 0.574219 -0.0625 L 0.574219 0.382812 C 0.574219 0.417969 0.582031 0.449219 0.59375 0.472656 C 0.609375 0.496094 0.628906 0.511719 0.660156 0.523438 C 0.683594 0.53125 0.71875 0.542969 0.761719 0.550781 C 0.804688 0.558594 0.84375 0.5625 0.871094 0.5625 L 0.871094 0.664062 L 0.0507812 0.664062 L 0.0507812 0.5625 C 0.0820312 0.5625 0.109375 0.558594 0.140625 0.554688 C 0.167969 0.554688 0.195312 0.546875 0.214844 0.542969 C 0.246094 0.53125 0.265625 0.515625 0.277344 0.488281 C 0.289062 0.464844 0.296875 0.433594 0.296875 0.402344 L 0.296875 -1.164062 C 0.296875 -1.195312 0.289062 -1.222656 0.273438 -1.25 C 0.257812 -1.277344 0.242188 -1.300781 0.214844 -1.316406 C 0.199219 -1.328125 0.171875 -1.339844 0.140625 -1.34375 C 0.109375 -1.351562 0.078125 -1.355469 0.0507812 -1.359375 L 0.0507812 -1.457031 L 0.550781 -1.488281 L 0.570312 -1.472656 L 0.570312 -1.304688 L 0.582031 -1.300781 C 0.636719 -1.363281 0.699219 -1.410156 0.777344 -1.453125 C 0.851562 -1.492188 0.929688 -1.511719 1.003906 -1.511719 C 1.097656 -1.511719 1.179688 -1.492188 1.253906 -1.453125 C 1.332031 -1.414062 1.398438 -1.363281 1.453125 -1.296875 M 1.207031 -0.238281 C 1.25 -0.300781 1.277344 -0.371094 1.296875 -0.453125 C 1.316406 -0.535156 1.324219 -0.625 1.324219 -0.726562 C 1.324219 -0.800781 1.316406 -0.875 1.300781 -0.953125 C 1.285156 -1.027344 1.261719 -1.09375 1.226562 -1.152344 C 1.191406 -1.210938 1.148438 -1.257812 1.09375 -1.292969 C 1.039062 -1.328125 0.972656 -1.347656 0.898438 -1.347656 C 0.824219 -1.347656 0.761719 -1.328125 0.707031 -1.296875 C 0.65625 -1.265625 0.613281 -1.226562 0.574219 -1.183594 L 0.574219 -0.3125 C 0.582031 -0.285156 0.597656 -0.257812 0.617188 -0.226562 C 0.640625 -0.199219 0.660156 -0.175781 0.6875 -0.152344 C 0.71875 -0.128906 0.75 -0.109375 0.785156 -0.09375 C 0.820312 -0.078125 0.867188 -0.0703125 0.917969 -0.0703125 C 0.972656 -0.0703125 1.027344 -0.0859375 1.078125 -0.113281 C 1.128906 -0.144531 1.175781 -0.183594 1.207031 -0.238281 Z "/>
</g>
<g id="glyph-0-1">
<path d="M 1.683594 -0.0273438 L 1.203125 0.0078125 L 1.183594 -0.015625 L 1.183594 -0.203125 L 1.171875 -0.203125 C 1.148438 -0.175781 1.121094 -0.148438 1.09375 -0.121094 C 1.0625 -0.09375 1.027344 -0.0664062 0.988281 -0.0429688 C 0.945312 -0.0195312 0.902344 0.00390625 0.859375 0.015625 C 0.816406 0.03125 0.757812 0.0390625 0.683594 0.0390625 C 0.550781 0.0390625 0.453125 -0.00390625 0.386719 -0.0898438 C 0.316406 -0.175781 0.285156 -0.296875 0.285156 -0.460938 L 0.285156 -1.164062 C 0.285156 -1.199219 0.277344 -1.230469 0.261719 -1.253906 C 0.25 -1.277344 0.230469 -1.300781 0.203125 -1.316406 C 0.1875 -1.328125 0.164062 -1.339844 0.136719 -1.34375 C 0.109375 -1.347656 0.0820312 -1.351562 0.0507812 -1.355469 L 0.0507812 -1.453125 L 0.542969 -1.488281 L 0.5625 -1.46875 L 0.5625 -0.445312 C 0.5625 -0.339844 0.589844 -0.257812 0.636719 -0.207031 C 0.683594 -0.152344 0.742188 -0.125 0.808594 -0.125 C 0.863281 -0.125 0.910156 -0.132812 0.953125 -0.152344 C 0.996094 -0.167969 1.03125 -0.1875 1.0625 -0.210938 C 1.085938 -0.230469 1.113281 -0.253906 1.132812 -0.277344 C 1.152344 -0.300781 1.167969 -0.320312 1.179688 -0.339844 L 1.179688 -1.175781 C 1.179688 -1.207031 1.171875 -1.238281 1.15625 -1.261719 C 1.144531 -1.285156 1.125 -1.308594 1.101562 -1.328125 C 1.082031 -1.339844 1.054688 -1.347656 1.019531 -1.347656 C 0.984375 -1.351562 0.945312 -1.351562 0.902344 -1.355469 L 0.902344 -1.453125 L 1.4375 -1.488281 L 1.460938 -1.46875 L 1.460938 -0.300781 C 1.460938 -0.265625 1.464844 -0.238281 1.480469 -0.214844 C 1.496094 -0.191406 1.511719 -0.171875 1.539062 -0.152344 C 1.554688 -0.144531 1.578125 -0.136719 1.601562 -0.132812 C 1.628906 -0.128906 1.65625 -0.125 1.683594 -0.125 Z "/>
</g>
<g id="glyph-0-2">
<path d="M 2.625 0 L 1.910156 0 L 1.910156 -0.0976562 C 1.929688 -0.101562 1.953125 -0.101562 1.976562 -0.105469 C 2 -0.105469 2.023438 -0.109375 2.039062 -0.117188 C 2.066406 -0.125 2.089844 -0.140625 2.101562 -0.164062 C 2.113281 -0.1875 2.121094 -0.214844 2.121094 -0.25 L 2.121094 -1.011719 C 2.121094 -1.113281 2.097656 -1.195312 2.050781 -1.25 C 2.003906 -1.304688 1.945312 -1.335938 1.875 -1.335938 C 1.824219 -1.335938 1.78125 -1.328125 1.738281 -1.3125 C 1.695312 -1.296875 1.65625 -1.277344 1.617188 -1.25 C 1.589844 -1.226562 1.566406 -1.203125 1.546875 -1.179688 C 1.527344 -1.152344 1.511719 -1.132812 1.503906 -1.113281 L 1.503906 -0.265625 C 1.503906 -0.230469 1.507812 -0.203125 1.519531 -0.179688 C 1.53125 -0.15625 1.554688 -0.140625 1.582031 -0.128906 C 1.605469 -0.121094 1.625 -0.113281 1.644531 -0.109375 C 1.660156 -0.105469 1.6875 -0.101562 1.714844 -0.0976562 L 1.714844 0 L 1.015625 0 L 1.015625 -0.0976562 C 1.039062 -0.101562 1.058594 -0.101562 1.082031 -0.105469 C 1.101562 -0.105469 1.121094 -0.109375 1.140625 -0.117188 C 1.167969 -0.125 1.1875 -0.140625 1.203125 -0.164062 C 1.214844 -0.1875 1.222656 -0.214844 1.222656 -0.25 L 1.222656 -1.011719 C 1.222656 -1.113281 1.199219 -1.195312 1.152344 -1.25 C 1.105469 -1.304688 1.042969 -1.335938 0.972656 -1.335938 C 0.925781 -1.335938 0.878906 -1.328125 0.835938 -1.3125 C 0.792969 -1.296875 0.753906 -1.273438 0.71875 -1.246094 C 0.6875 -1.226562 0.664062 -1.199219 0.644531 -1.171875 C 0.625 -1.144531 0.609375 -1.125 0.601562 -1.113281 L 0.601562 -0.269531 C 0.601562 -0.234375 0.605469 -0.207031 0.621094 -0.183594 C 0.632812 -0.160156 0.65625 -0.144531 0.683594 -0.132812 C 0.703125 -0.121094 0.726562 -0.113281 0.746094 -0.109375 C 0.769531 -0.105469 0.792969 -0.101562 0.820312 -0.0976562 L 0.820312 0 L 0.105469 0 L 0.105469 -0.0976562 C 0.128906 -0.101562 0.152344 -0.101562 0.175781 -0.105469 C 0.203125 -0.105469 0.222656 -0.109375 0.242188 -0.117188 C 0.269531 -0.125 0.289062 -0.140625 0.300781 -0.164062 C 0.316406 -0.1875 0.324219 -0.214844 0.324219 -0.25 L 0.324219 -1.164062 C 0.324219 -1.195312 0.316406 -1.222656 0.300781 -1.25 C 0.285156 -1.273438 0.265625 -1.296875 0.242188 -1.316406 C 0.222656 -1.328125 0.199219 -1.335938 0.171875 -1.34375 C 0.140625 -1.351562 0.113281 -1.355469 0.0820312 -1.359375 L 0.0820312 -1.457031 L 0.574219 -1.488281 L 0.597656 -1.46875 L 0.597656 -1.257812 L 0.605469 -1.257812 C 0.632812 -1.28125 0.664062 -1.3125 0.699219 -1.347656 C 0.734375 -1.378906 0.765625 -1.40625 0.796875 -1.429688 C 0.832031 -1.453125 0.875 -1.472656 0.929688 -1.488281 C 0.980469 -1.503906 1.039062 -1.511719 1.097656 -1.511719 C 1.195312 -1.511719 1.277344 -1.484375 1.34375 -1.433594 C 1.414062 -1.382812 1.460938 -1.320312 1.492188 -1.25 C 1.527344 -1.285156 1.558594 -1.3125 1.585938 -1.339844 C 1.613281 -1.367188 1.648438 -1.394531 1.695312 -1.425781 C 1.734375 -1.449219 1.777344 -1.472656 1.828125 -1.488281 C 1.878906 -1.503906 1.9375 -1.511719 2 -1.511719 C 2.121094 -1.511719 2.222656 -1.472656 2.292969 -1.390625 C 2.367188 -1.308594 2.402344 -1.183594 2.402344 -1.011719 L 2.402344 -0.265625 C 2.402344 -0.230469 2.410156 -0.203125 2.421875 -0.179688 C 2.433594 -0.15625 2.453125 -0.140625 2.480469 -0.128906 C 2.503906 -0.121094 2.527344 -0.113281 2.550781 -0.109375 C 2.570312 -0.105469 2.597656 -0.101562 2.625 -0.0976562 Z "/>
</g>
<g id="glyph-0-3">
<path d="M 1.667969 0 L 1.222656 0 C 1.144531 -0.113281 1.0625 -0.234375 0.972656 -0.359375 C 0.882812 -0.488281 0.792969 -0.613281 0.695312 -0.734375 L 0.574219 -0.621094 L 0.574219 -0.273438 C 0.574219 -0.234375 0.582031 -0.207031 0.59375 -0.183594 C 0.605469 -0.160156 0.628906 -0.140625 0.65625 -0.132812 C 0.679688 -0.121094 0.703125 -0.113281 0.726562 -0.109375 C 0.746094 -0.105469 0.773438 -0.101562 0.800781 -0.0976562 L 0.800781 0 L 0.0820312 0 L 0.0820312 -0.0976562 C 0.101562 -0.101562 0.128906 -0.101562 0.152344 -0.105469 C 0.175781 -0.109375 0.195312 -0.113281 0.214844 -0.117188 C 0.242188 -0.125 0.261719 -0.140625 0.277344 -0.164062 C 0.289062 -0.1875 0.296875 -0.214844 0.296875 -0.25 L 0.296875 -1.960938 C 0.296875 -2 0.289062 -2.035156 0.273438 -2.066406 C 0.257812 -2.097656 0.238281 -2.121094 0.214844 -2.140625 C 0.191406 -2.15625 0.160156 -2.167969 0.117188 -2.171875 C 0.0703125 -2.175781 0.0351562 -2.179688 0.0078125 -2.179688 L 0.0078125 -2.277344 L 0.554688 -2.308594 L 0.574219 -2.289062 L 0.574219 -0.730469 C 0.652344 -0.808594 0.734375 -0.890625 0.824219 -0.980469 C 0.917969 -1.070312 0.992188 -1.148438 1.054688 -1.21875 C 1.0625 -1.226562 1.070312 -1.238281 1.078125 -1.253906 C 1.089844 -1.269531 1.09375 -1.28125 1.09375 -1.289062 C 1.09375 -1.316406 1.074219 -1.335938 1.027344 -1.347656 C 0.984375 -1.363281 0.945312 -1.371094 0.90625 -1.375 L 0.90625 -1.472656 L 1.550781 -1.472656 L 1.550781 -1.378906 C 1.46875 -1.355469 1.394531 -1.324219 1.332031 -1.285156 C 1.265625 -1.25 1.21875 -1.214844 1.183594 -1.183594 C 1.160156 -1.164062 1.125 -1.132812 1.082031 -1.089844 C 1.039062 -1.042969 0.976562 -0.984375 0.898438 -0.914062 C 0.980469 -0.8125 1.070312 -0.691406 1.171875 -0.550781 C 1.277344 -0.410156 1.351562 -0.308594 1.398438 -0.246094 C 1.441406 -0.1875 1.480469 -0.148438 1.515625 -0.132812 C 1.550781 -0.113281 1.601562 -0.101562 1.667969 -0.0976562 Z "/>
</g>
<g id="glyph-0-4">
<path d="M 0.820312 0 L 0.109375 0 L 0.109375 -0.0976562 C 0.132812 -0.101562 0.15625 -0.101562 0.179688 -0.105469 C 0.207031 -0.105469 0.226562 -0.109375 0.246094 -0.117188 C 0.273438 -0.125 0.292969 -0.140625 0.308594 -0.164062 C 0.320312 -0.1875 0.328125 -0.214844 0.328125 -0.25 L 0.328125 -1.15625 C 0.328125 -1.191406 0.320312 -1.21875 0.304688 -1.246094 C 0.289062 -1.273438 0.269531 -1.292969 0.246094 -1.3125 C 0.226562 -1.324219 0.199219 -1.332031 0.164062 -1.34375 C 0.125 -1.351562 0.09375 -1.355469 0.0625 -1.359375 L 0.0625 -1.457031 L 0.582031 -1.488281 L 0.605469 -1.46875 L 0.605469 -0.269531 C 0.605469 -0.234375 0.609375 -0.203125 0.625 -0.183594 C 0.636719 -0.160156 0.660156 -0.140625 0.6875 -0.132812 C 0.710938 -0.121094 0.730469 -0.113281 0.75 -0.109375 C 0.773438 -0.105469 0.796875 -0.101562 0.820312 -0.0976562 L 0.820312 0 M 0.632812 -2.070312 C 0.632812 -2.011719 0.617188 -1.964844 0.578125 -1.921875 C 0.539062 -1.878906 0.496094 -1.859375 0.441406 -1.859375 C 0.390625 -1.859375 0.34375 -1.878906 0.308594 -1.917969 C 0.269531 -1.957031 0.253906 -2.003906 0.253906 -2.054688 C 0.253906 -2.109375 0.269531 -2.160156 0.308594 -2.199219 C 0.34375 -2.242188 0.390625 -2.261719 0.441406 -2.261719 C 0.496094 -2.261719 0.542969 -2.242188 0.578125 -2.203125 C 0.617188 -2.164062 0.632812 -2.121094 0.632812 -2.070312 Z "/>
</g>
<g id="glyph-0-5">
<path d="M 1.734375 0 L 1.011719 0 L 1.011719 -0.0976562 C 1.035156 -0.101562 1.0625 -0.101562 1.089844 -0.105469 C 1.117188 -0.105469 1.136719 -0.109375 1.15625 -0.117188 C 1.183594 -0.125 1.203125 -0.140625 1.21875 -0.164062 C 1.230469 -0.1875 1.238281 -0.214844 1.238281 -0.25 L 1.238281 -1.007812 C 1.238281 -1.113281 1.214844 -1.191406 1.164062 -1.25 C 1.113281 -1.304688 1.054688 -1.335938 0.984375 -1.335938 C 0.929688 -1.335938 0.882812 -1.324219 0.839844 -1.308594 C 0.796875 -1.292969 0.757812 -1.273438 0.722656 -1.25 C 0.691406 -1.226562 0.664062 -1.203125 0.644531 -1.175781 C 0.625 -1.148438 0.609375 -1.128906 0.601562 -1.113281 L 0.601562 -0.265625 C 0.601562 -0.230469 0.609375 -0.203125 0.621094 -0.183594 C 0.636719 -0.160156 0.65625 -0.144531 0.683594 -0.132812 C 0.707031 -0.121094 0.726562 -0.113281 0.753906 -0.109375 C 0.777344 -0.105469 0.800781 -0.101562 0.828125 -0.0976562 L 0.828125 0 L 0.109375 0 L 0.109375 -0.0976562 C 0.128906 -0.101562 0.152344 -0.101562 0.179688 -0.105469 C 0.203125 -0.105469 0.222656 -0.109375 0.242188 -0.117188 C 0.269531 -0.125 0.289062 -0.140625 0.304688 -0.164062 C 0.316406 -0.1875 0.324219 -0.214844 0.324219 -0.25 L 0.324219 -1.15625 C 0.324219 -1.191406 0.316406 -1.222656 0.300781 -1.25 C 0.289062 -1.28125 0.269531 -1.304688 0.242188 -1.320312 C 0.222656 -1.332031 0.199219 -1.339844 0.175781 -1.347656 C 0.148438 -1.351562 0.121094 -1.355469 0.0898438 -1.359375 L 0.0898438 -1.457031 L 0.582031 -1.488281 L 0.601562 -1.46875 L 0.601562 -1.261719 L 0.609375 -1.261719 C 0.632812 -1.285156 0.664062 -1.3125 0.699219 -1.347656 C 0.734375 -1.378906 0.769531 -1.40625 0.800781 -1.429688 C 0.835938 -1.453125 0.878906 -1.472656 0.929688 -1.488281 C 0.980469 -1.503906 1.039062 -1.511719 1.101562 -1.511719 C 1.242188 -1.511719 1.347656 -1.46875 1.417969 -1.378906 C 1.484375 -1.292969 1.519531 -1.175781 1.519531 -1.027344 L 1.519531 -0.261719 C 1.519531 -0.226562 1.523438 -0.199219 1.535156 -0.179688 C 1.550781 -0.15625 1.570312 -0.140625 1.597656 -0.128906 C 1.621094 -0.117188 1.644531 -0.113281 1.660156 -0.109375 C 1.675781 -0.101562 1.703125 -0.101562 1.734375 -0.0976562 Z "/>
</g>
</g>
</defs>
<g fill="rgb(87.843137%, 87.843137%, 87.843137%)" fill-opacity="1">
<use xlink:href="#glyph-0-0" x="30" y="22.801758"/>
<use xlink:href="#glyph-0-1" x="32" y="22.801758"/>
<use xlink:href="#glyph-0-2" x="34" y="22.801758"/>
<use xlink:href="#glyph-0-0" x="37" y="22.801758"/>
<use xlink:href="#glyph-0-3" x="39" y="22.801758"/>
<use xlink:href="#glyph-0-4" x="41" y="22.801758"/>
<use xlink:href="#glyph-0-5" x="42" y="22.801758"/>
</g>
</svg>
